<svg xmlns="http://www.w3.org/2000/svg" viewBox="0 0 400 225">
  <!-- E-commerce Theme - Nature Colors -->
  <rect width="400" height="225" fill="#FFF8E7"/>

  <!-- Grid pattern - earth tone -->
  <defs>
    <pattern id="grid3" width="20" height="20" patternUnits="userSpaceOnUse">
      <rect width="20" height="20" fill="none" stroke="#8D6E63" stroke-width="1" opacity="0.2"/>
    </pattern>
  </defs>
  <rect width="400" height="225" fill="url(#grid3)"/>

  <!-- Phone frame -->
  <rect x="140" y="25" width="120" height="180" rx="10" fill="#FFF3E0" stroke="#F48FB1" stroke-width="4"/>

  <!-- Screen -->
  <rect x="150" y="40" width="100" height="150" fill="#FFF8E7"/>

  <!-- App header -->
  <rect x="150" y="40" width="100" height="30" fill="#F48FB1" opacity="0.3"/>

  <!-- Shopping cart icon - nature colors -->
  <rect x="175" y="80" width="50" height="35" fill="none" stroke="#FFD54F" stroke-width="3"/>
  <circle cx="185" cy="125" r="8" fill="none" stroke="#FFD54F" stroke-width="2"/>
  <circle cx="215" cy="125" r="8" fill="none" stroke="#FFD54F" stroke-width="2"/>
  <rect x="170" y="75" width="15" height="10" fill="#FFD54F"/>

  <!-- Product cards -->
  <rect x="160" y="140" width="35" height="35" fill="#87CEEB" opacity="0.4"/>
  <rect x="205" y="140" width="35" height="35" fill="#8D6E63" opacity="0.4"/>

  <!-- Price tags -->
  <rect x="160" y="180" width="30" height="5" fill="#7CB342" opacity="0.6"/>
  <rect x="205" y="180" width="30" height="5" fill="#7CB342" opacity="0.6"/>

  <!-- Decorative pixels -->
  <rect x="50" y="40" width="12" height="12" fill="#F48FB1"/>
  <rect x="70" y="70" width="12" height="12" fill="#87CEEB"/>
  <rect x="320" y="50" width="12" height="12" fill="#FFD54F"/>
  <rect x="340" y="100" width="12" height="12" fill="#8D6E63"/>
  <rect x="45" y="160" width="12" height="12" fill="#7CB342"/>
  <rect x="330" y="170" width="12" height="12" fill="#F48FB1"/>

  <!-- Title -->
  <text x="200" y="205" text-anchor="middle" font-family="monospace" font-size="14" fill="#F48FB1">E-COMMERCE</text>
</svg>