<svg xmlns="http://www.w3.org/2000/svg" viewBox="0 0 400 225">
  <!-- E-commerce Theme - Pink/Yellow -->
  <rect width="400" height="225" fill="#0D0221"/>

  <!-- Grid pattern -->
  <defs>
    <pattern id="grid3" width="20" height="20" patternUnits="userSpaceOnUse">
      <rect width="20" height="20" fill="none" stroke="#1a0b2e" stroke-width="1"/>
    </pattern>
  </defs>
  <rect width="400" height="225" fill="url(#grid3)"/>

  <!-- Phone frame -->
  <rect x="140" y="25" width="120" height="180" rx="10" fill="#1e293b" stroke="#FF006E" stroke-width="4"/>

  <!-- Screen -->
  <rect x="150" y="40" width="100" height="150" fill="#0D0221"/>

  <!-- App header -->
  <rect x="150" y="40" width="100" height="30" fill="#FF006E" opacity="0.3"/>

  <!-- Shopping cart icon -->
  <rect x="175" y="80" width="50" height="35" fill="none" stroke="#FFD60A" stroke-width="3"/>
  <circle cx="185" cy="125" r="8" fill="none" stroke="#FFD60A" stroke-width="2"/>
  <circle cx="215" cy="125" r="8" fill="none" stroke="#FFD60A" stroke-width="2"/>
  <rect x="170" y="75" width="15" height="10" fill="#FFD60A"/>

  <!-- Product cards -->
  <rect x="160" y="140" width="35" height="35" fill="#00F5FF" opacity="0.4"/>
  <rect x="205" y="140" width="35" height="35" fill="#9D4EDD" opacity="0.4"/>

  <!-- Price tags -->
  <rect x="160" y="180" width="30" height="5" fill="#39FF14" opacity="0.6"/>
  <rect x="205" y="180" width="30" height="5" fill="#39FF14" opacity="0.6"/>

  <!-- Decorative pixels -->
  <rect x="50" y="40" width="12" height="12" fill="#FF006E"/>
  <rect x="70" y="70" width="12" height="12" fill="#00F5FF"/>
  <rect x="320" y="50" width="12" height="12" fill="#FFD60A"/>
  <rect x="340" y="100" width="12" height="12" fill="#9D4EDD"/>
  <rect x="45" y="160" width="12" height="12" fill="#39FF14"/>
  <rect x="330" y="170" width="12" height="12" fill="#FF006E"/>

  <!-- Title -->
  <text x="200" y="205" text-anchor="middle" font-family="monospace" font-size="14" fill="#FF006E">E-COMMERCE</text>
</svg>