<svg xmlns="http://www.w3.org/2000/svg" viewBox="0 0 400 225">
  <!-- Hospital Theme - Purple/Cyan -->
  <rect width="400" height="225" fill="#0D0221"/>

  <!-- Grid pattern -->
  <defs>
    <pattern id="grid1" width="20" height="20" patternUnits="userSpaceOnUse">
      <rect width="20" height="20" fill="none" stroke="#1a0b2e" stroke-width="1"/>
    </pattern>
  </defs>
  <rect width="400" height="225" fill="url(#grid1)"/>

  <!-- Hospital building - pixel style -->
  <rect x="120" y="50" width="160" height="140" fill="#9D4EDD" opacity="0.3"/>
  <rect x="130" y="60" width="140" height="120" fill="#0D0221" stroke="#9D4EDD" stroke-width="4"/>

  <!-- Hospital cross -->
  <rect x="190" y="80" width="20" height="60" fill="#00F5FF"/>
  <rect x="170" y="100" width="60" height="20" fill="#00F5FF"/>

  <!-- Windows -->
  <rect x="145" y="75" width="20" height="20" fill="#00F5FF" opacity="0.6"/>
  <rect x="235" y="75" width="20" height="20" fill="#00F5FF" opacity="0.6"/>
  <rect x="145" y="115" width="20" height="20" fill="#00F5FF" opacity="0.4"/>
  <rect x="235" y="115" width="20" height="20" fill="#00F5FF" opacity="0.4"/>
  <rect x="145" y="155" width="20" height="20" fill="#00F5FF" opacity="0.4"/>
  <rect x="235" y="155" width="20" height="20" fill="#00F5FF" opacity="0.4"/>
  <rect x="190" y="155" width="20" height="20" fill="#00F5FF" opacity="0.4"/>

  <!-- Pixel dots -->
  <rect x="40" y="30" width="8" height="8" fill="#FF006E"/>
  <rect x="60" y="50" width="8" height="8" fill="#FF006E"/>
  <rect x="320" y="40" width="8" height="8" fill="#FFD60A"/>
  <rect x="340" y="70" width="8" height="8" fill="#FFD60A"/>
  <rect x="50" y="180" width="8" height="8" fill="#39FF14"/>
  <rect x="330" y="170" width="8" height="8" fill="#39FF14"/>

  <!-- Title text pixel style -->
  <text x="200" y="205" text-anchor="middle" font-family="monospace" font-size="14" fill="#00F5FF">HOSPITAL APP</text>
</svg>