<svg xmlns="http://www.w3.org/2000/svg" viewBox="0 0 400 225">
  <!-- Portfolio Theme - Nature Colors -->
  <rect width="400" height="225" fill="#FFF8E7"/>

  <!-- Grid pattern - earth tone -->
  <defs>
    <pattern id="grid2" width="20" height="20" patternUnits="userSpaceOnUse">
      <rect width="20" height="20" fill="none" stroke="#8D6E63" stroke-width="1" opacity="0.2"/>
    </pattern>
  </defs>
  <rect width="400" height="225" fill="url(#grid2)"/>

  <!-- Browser window -->
  <rect x="60" y="40" width="280" height="160" fill="#FFF3E0" stroke="#8D6E63" stroke-width="4"/>

  <!-- Browser header -->
  <rect x="60" y="40" width="280" height="30" fill="#8D6E63" opacity="0.2"/>
  <circle cx="80" cy="55" r="6" fill="#F48FB1"/>
  <circle cx="100" cy="55" r="6" fill="#FFD54F"/>
  <circle cx="120" cy="55" r="6" fill="#7CB342"/>

  <!-- Content blocks -->
  <rect x="80" y="90" width="100" height="80" fill="#87CEEB" opacity="0.4"/>
  <rect x="200" y="90" width="120" height="15" fill="#8D6E63" opacity="0.6"/>
  <rect x="200" y="115" width="100" height="10" fill="#8D6E63" opacity="0.4"/>
  <rect x="200" y="135" width="80" height="10" fill="#8D6E63" opacity="0.4"/>
  <rect x="200" y="155" width="60" height="10" fill="#8D6E63" opacity="0.3"/>

  <!-- Pixel avatar - nature style -->
  <rect x="100" y="110" width="50" height="50" fill="#F48FB1" opacity="0.5"/>
  <rect x="115" y="125" width="8" height="8" fill="#FFD54F"/>
  <rect x="135" y="125" width="8" height="8" fill="#FFD54F"/>
  <rect x="115" y="145" width="28" height="4" fill="#7CB342"/>

  <!-- Decorative pixels -->
  <rect x="30" y="30" width="10" height="10" fill="#F48FB1"/>
  <rect x="360" y="40" width="10" height="10" fill="#FFD54F"/>
  <rect x="350" y="170" width="10" height="10" fill="#7CB342"/>
  <rect x="25" y="180" width="10" height="10" fill="#8D6E63"/>

  <!-- Title -->
  <text x="200" y="205" text-anchor="middle" font-family="monospace" font-size="14" fill="#8D6E63">PORTFOLIO</text>
</svg>