<svg xmlns="http://www.w3.org/2000/svg" viewBox="0 0 400 225">
  <!-- Portfolio Theme - Cyan/Yellow -->
  <rect width="400" height="225" fill="#0D0221"/>

  <!-- Grid pattern -->
  <defs>
    <pattern id="grid2" width="20" height="20" patternUnits="userSpaceOnUse">
      <rect width="20" height="20" fill="none" stroke="#1a0b2e" stroke-width="1"/>
    </pattern>
  </defs>
  <rect width="400" height="225" fill="url(#grid2)"/>

  <!-- Browser window -->
  <rect x="60" y="40" width="280" height="160" fill="#1e293b" stroke="#00F5FF" stroke-width="4"/>

  <!-- Browser header -->
  <rect x="60" y="40" width="280" height="30" fill="#00F5FF" opacity="0.2"/>
  <circle cx="80" cy="55" r="6" fill="#FF006E"/>
  <circle cx="100" cy="55" r="6" fill="#FFD60A"/>
  <circle cx="120" cy="55" r="6" fill="#39FF14"/>

  <!-- Content blocks -->
  <rect x="80" y="90" width="100" height="80" fill="#9D4EDD" opacity="0.4"/>
  <rect x="200" y="90" width="120" height="15" fill="#00F5FF" opacity="0.6"/>
  <rect x="200" y="115" width="100" height="10" fill="#00F5FF" opacity="0.4"/>
  <rect x="200" y="135" width="80" height="10" fill="#00F5FF" opacity="0.4"/>
  <rect x="200" y="155" width="60" height="10" fill="#00F5FF" opacity="0.3"/>

  <!-- Pixel avatar -->
  <rect x="100" y="110" width="50" height="50" fill="#FF006E" opacity="0.5"/>
  <rect x="115" y="125" width="8" height="8" fill="#FFD60A"/>
  <rect x="135" y="125" width="8" height="8" fill="#FFD60A"/>
  <rect x="115" y="145" width="28" height="4" fill="#00F5FF"/>

  <!-- Decorative pixels -->
  <rect x="30" y="30" width="10" height="10" fill="#FF006E"/>
  <rect x="360" y="40" width="10" height="10" fill="#FFD60A"/>
  <rect x="350" y="170" width="10" height="10" fill="#39FF14"/>
  <rect x="25" y="180" width="10" height="10" fill="#9D4EDD"/>

  <!-- Title -->
  <text x="200" y="205" text-anchor="middle" font-family="monospace" font-size="14" fill="#FFD60A">PORTFOLIO</text>
</svg>