<svg xmlns="http://www.w3.org/2000/svg" viewBox="0 0 400 225">
  <!-- CMS Theme - Nature Colors -->
  <rect width="400" height="225" fill="#FFF8E7"/>

  <!-- Grid pattern - earth tone -->
  <defs>
    <pattern id="grid4" width="20" height="20" patternUnits="userSpaceOnUse">
      <rect width="20" height="20" fill="none" stroke="#8D6E63" stroke-width="1" opacity="0.2"/>
    </pattern>
  </defs>
  <rect width="400" height="225" fill="url(#grid4)"/>

  <!-- Admin panel -->
  <rect x="50" y="30" width="300" height="170" fill="#FFF3E0" stroke="#8D6E63" stroke-width="4"/>

  <!-- Sidebar -->
  <rect x="50" y="30" width="60" height="170" fill="#8D6E63" opacity="0.2"/>

  <!-- Sidebar menu items -->
  <rect x="60" y="50" width="40" height="8" fill="#FFD54F" opacity="0.6"/>
  <rect x="60" y="70" width="40" height="8" fill="#7CB342" opacity="0.6"/>
  <rect x="60" y="90" width="40" height="8" fill="#7CB342" opacity="0.4"/>
  <rect x="60" y="110" width="40" height="8" fill="#7CB342" opacity="0.4"/>

  <!-- Content area -->
  <rect x="130" y="50" width="200" height="130" fill="#FFF8E7"/>

  <!-- Content cards -->
  <rect x="140" y="60" width="55" height="50" fill="#87CEEB" opacity="0.4"/>
  <rect x="205" y="60" width="55" height="50" fill="#87CEEB" opacity="0.4"/>
  <rect x="270" y="60" width="50" height="50" fill="#87CEEB" opacity="0.4"/>

  <!-- Text lines -->
  <rect x="140" y="125" width="180" height="8" fill="#8D6E63" opacity="0.4"/>
  <rect x="140" y="140" width="160" height="6" fill="#8D6E63" opacity="0.3"/>
  <rect x="140" y="152" width="140" height="6" fill="#8D6E63" opacity="0.3"/>
  <rect x="140" y="164" width="120" height="6" fill="#8D6E63" opacity="0.3"/>

  <!-- Laravel logo inspired shape -->
  <polygon points="330,140 345,120 360,140 345,160" fill="#F48FB1" opacity="0.6"/>
  <text x="345" y="150" text-anchor="middle" font-family="monospace" font-size="10" fill="#FFD54F">L</text>

  <!-- Decorative pixels -->
  <rect x="30" y="20" width="10" height="10" fill="#F48FB1"/>
  <rect x="360" y="25" width="10" height="10" fill="#7CB342"/>
  <rect x="25" y="190" width="10" height="10" fill="#FFD54F"/>
  <rect x="365" y="185" width="10" height="10" fill="#8D6E63"/>

  <!-- Title -->
  <text x="200" y="205" text-anchor="middle" font-family="monospace" font-size="14" fill="#8D6E63">LARAVEL CMS</text>
</svg>